<svg xmlns="http://www.w3.org/2000/svg" width="48" height="48" viewBox="0 0 48 48" fill="none">
<path d="M47.4964 9.43757C46.988 9.19072 46.769 9.66115 46.4717 9.90013C46.37 9.97722 46.284 10.0774 46.1979 10.1699C45.4548 10.9562 44.5866 11.4729 43.4523 11.4112C41.794 11.3186 40.3781 11.8353 39.1265 13.092C38.8605 11.5423 37.9767 10.617 36.6312 10.0234C35.9273 9.71497 35.2154 9.40651 34.7226 8.7357C34.3784 8.25783 34.2845 7.7258 34.1124 7.20147C34.0029 6.8854 33.8934 6.56146 33.5257 6.50747C33.1268 6.44587 32.9703 6.77725 32.8138 7.05499C32.1881 8.18844 31.9456 9.43749 31.969 10.7019C32.0237 13.5471 33.2363 15.8137 35.6455 17.4252C35.9193 17.6103 35.9896 17.7952 35.9036 18.0652C35.7393 18.6204 35.5437 19.16 35.3717 19.7151C35.2622 20.0699 35.0978 20.147 34.7146 19.9926C33.3926 19.4453 32.2505 18.6357 31.2414 17.6566C29.5284 16.0143 27.9795 14.2024 26.0475 12.7837C25.5938 12.4521 25.1401 12.1438 24.6707 11.8507C22.6994 9.95412 24.9289 8.39653 25.4451 8.21163C25.9848 8.01885 25.6329 7.35566 23.8884 7.36353C22.144 7.37114 20.5483 7.94946 18.5146 8.72047C18.2173 8.83615 17.9043 8.92086 17.5836 8.99025C15.7376 8.64338 13.8211 8.56612 11.8186 8.78986C8.04819 9.20613 5.03671 10.9718 2.823 13.9865C0.16347 17.6103 -0.462297 21.7274 0.304303 26.0221C1.11002 30.5478 3.44099 34.295 7.02367 37.225C10.7393 40.2626 15.0181 41.7507 19.8992 41.4655C22.8639 41.2959 26.1649 40.9027 29.8884 37.7801C30.827 38.2427 31.8126 38.4276 33.4475 38.5664C34.7069 38.6821 35.9194 38.5048 36.858 38.3121C38.3286 38.0037 38.227 36.6544 37.6951 36.4077C33.385 34.4185 34.3314 35.228 33.471 34.5726C35.6613 32.0052 38.9624 29.3374 40.253 20.6942C40.3546 20.0081 40.2686 19.5763 40.253 19.0211C40.2451 18.682 40.3234 18.551 40.7145 18.5123C41.794 18.3889 42.8422 18.096 43.8043 17.5717C46.5969 16.0606 47.7233 13.5779 47.9892 10.6017C48.0284 10.1468 47.9814 9.67638 47.4964 9.43757ZM23.1611 36.2225C18.984 32.969 16.9581 31.8971 16.1211 31.9434C15.3388 31.9897 15.4797 32.8764 15.6517 33.4547C15.8316 34.0252 16.0663 34.4185 16.3948 34.9196C16.6216 35.2511 16.7782 35.7445 16.168 36.1147C14.8226 36.9397 12.4836 35.8371 12.3741 35.7832C9.65202 34.1948 7.37571 32.0975 5.77205 29.2295C4.22322 26.4691 3.32373 23.5086 3.17504 20.3474C3.13592 19.5841 3.36276 19.3141 4.12936 19.1755C5.13843 18.9904 6.17884 18.9517 7.1879 19.0982C11.4512 19.7151 15.0807 21.6041 18.1235 24.5956C19.86 26.2995 21.1742 28.3352 22.5275 30.3243C23.9668 32.4368 25.5156 34.4493 27.4868 36.0992C28.183 36.6775 28.7384 37.1169 29.2703 37.4408C27.6668 37.6181 24.9915 37.6568 23.1611 36.2225ZM25.1636 23.4623C25.1636 23.123 25.4374 22.8532 25.7817 22.8532C25.8599 22.8532 25.9303 22.8685 25.9929 22.8916C26.079 22.9225 26.1572 22.9688 26.2198 23.038C26.3293 23.1461 26.3919 23.3002 26.3919 23.4622C26.3919 23.8014 26.1181 24.0712 25.774 24.0712C25.4299 24.0712 25.1636 23.8015 25.1636 23.4623ZM31.3824 26.6235C30.9835 26.7854 30.5846 26.9241 30.2013 26.9395C29.6068 26.9703 28.9575 26.7313 28.6056 26.4383C28.058 25.9834 27.6669 25.7291 27.5026 24.9349C27.4322 24.5956 27.4713 24.0713 27.534 23.7707C27.6747 23.123 27.5183 22.7067 27.0568 22.3288C26.6813 22.0204 26.2041 21.9357 25.68 21.9357C25.4844 21.9357 25.3046 21.8508 25.1716 21.7814C24.9525 21.6735 24.7727 21.4036 24.9447 21.0721C24.9995 20.9643 25.2655 20.702 25.3281 20.6558C26.04 20.2548 26.8613 20.3859 27.6201 20.6866C28.3242 20.9719 28.8561 21.4962 29.6226 22.2363C30.4048 23.1306 30.5456 23.3776 30.9915 24.0482C31.3436 24.5725 31.6643 25.1122 31.8833 25.7291C32.0162 26.1146 31.844 26.4307 31.3824 26.6235Z" fill="#4D6BFE"/>
</svg>