<svg xmlns="http://www.w3.org/2000/svg" width="48" height="48" viewBox="0 0 48 48" fill="none">
<rect width="48" height="48" rx="24" fill="white"/>
<path d="M19.3418 18.5599V14.7599C19.3418 14.4399 19.4608 14.1998 19.7382 14.04L27.3102 9.63997C28.3409 9.03999 29.5699 8.76014 30.8383 8.76014C35.5954 8.76014 38.6085 12.4802 38.6085 16.4401C38.6085 16.72 38.6085 17.04 38.5687 17.3601L30.7194 12.72C30.2437 12.4401 29.7678 12.4401 29.2922 12.72L19.3418 18.5599ZM37.0226 33.36V24.2799C37.0226 23.7197 36.7846 23.3197 36.309 23.0398L26.3586 17.1998L29.6093 15.3197C29.8868 15.1599 30.1247 15.1599 30.4022 15.3197L37.9741 19.7197C40.1547 20.9999 41.6213 23.7197 41.6213 26.3596C41.6213 29.3995 39.8375 32.1999 37.0226 33.36ZM17.0029 25.3601L13.7522 23.4402C13.4748 23.2804 13.3557 23.0402 13.3557 22.7202V13.9203C13.3557 9.64039 16.6065 6.40016 21.0069 6.40016C22.6722 6.40016 24.2179 6.96029 25.5265 7.96025L17.7168 12.5204C17.2412 12.8003 17.0033 13.2002 17.0033 13.7605L17.0029 25.3601ZM24 29.44L19.3418 26.8001V21.2003L24 18.5604L28.6578 21.2003V26.8001L24 29.44ZM26.993 41.6002C25.3278 41.6002 23.7821 41.04 22.4735 40.0402L30.2831 35.4799C30.7588 35.2001 30.9967 34.8001 30.9967 34.2399V22.6399L34.2873 24.5598C34.5646 24.7196 34.6837 24.9597 34.6837 25.2798V34.0797C34.6837 38.3596 31.3931 41.6002 26.993 41.6002ZM17.5975 32.6802L10.0255 28.2803C7.84493 27.0001 6.37833 24.2803 6.37833 21.6404C6.37833 18.5604 8.20193 15.8004 11.0164 14.6403V23.7602C11.0164 24.3204 11.2544 24.7204 11.73 25.0003L21.641 30.8001L18.3902 32.6802C18.1129 32.84 17.8749 32.84 17.5975 32.6802ZM17.1617 39.2402C12.682 39.2402 9.39151 35.8402 9.39151 31.6401C9.39151 31.3201 9.43125 31.0001 9.47066 30.68L17.2803 35.2402C17.7559 35.5201 18.2319 35.5201 18.7074 35.2402L28.6578 29.4404V33.2404C28.6578 33.5605 28.5388 33.8005 28.2614 33.9604L20.6894 38.3604C19.6586 38.9603 18.4301 39.2402 17.1617 39.2402ZM26.993 44C31.7899 44 35.7936 40.5601 36.7057 36C41.1457 34.8399 44 30.6399 44 26.36C44 23.5598 42.8108 20.8401 40.6701 18.88C40.8683 18.0399 40.9872 17.1998 40.9872 16.3602C40.9872 10.6403 36.3885 6.35998 31.0763 6.35998C30.0062 6.35998 28.9754 6.51979 27.9446 6.88001C26.1604 5.11992 23.7025 4 21.0069 4C16.2101 4 12.2064 7.4398 11.2943 12C6.8543 13.1601 4 17.3601 4 21.6399C4 24.4401 5.18916 27.1599 7.32995 29.1199C7.13174 29.96 7.01277 30.8001 7.01277 31.6398C7.01277 37.3597 11.6114 41.6399 16.9236 41.6399C17.9938 41.6399 19.0246 41.4801 20.0554 41.1199C21.8392 42.88 24.2971 44 26.993 44Z" fill="black"/>
</svg>