<svg width="48" height="48" viewBox="0 0 48 48" fill="none" xmlns="http://www.w3.org/2000/svg">
<path d="M42.9969 5.01514C38.4686 0.504 31.9569 0 24 0C16.0329 0 9.51171 0.51 4.98514 5.03314C0.459428 9.55457 0 16.0654 0 24.0231C0 31.9826 0.459428 38.4951 4.98686 43.0183C9.51343 47.5423 16.0337 48 24 48C31.9663 48 38.4857 47.5423 43.0123 43.0183C47.5397 38.4943 48 31.9826 48 24.0231C48 16.0551 47.5346 9.53743 42.9969 5.01514Z" fill="#FF6900"/>
<path d="M37.8897 15C38.0551 15 38.1922 15.1328 38.1922 15.2965V33.0831C38.1922 33.2443 38.0551 33.378 37.8897 33.378H33.9922C33.8251 33.378 33.6897 33.2443 33.6897 33.0831V15.2965C33.6897 15.1328 33.8251 15 33.9922 15H37.8897ZM20.9782 15C23.9182 15 26.9919 15.1345 28.5074 16.6517C29.9988 18.1448 30.1597 21.1171 30.1657 24.0036L30.1659 33.0831C30.1659 33.2443 30.0305 33.378 29.8634 33.378H25.9677C25.8005 33.378 25.6642 33.2443 25.6642 33.0831V23.8474C25.6599 22.2351 25.5674 20.5783 24.7359 19.7443C24.0202 19.0268 22.6848 18.8623 21.2962 18.828H14.2334C14.0671 18.828 13.9317 18.9617 13.9317 19.1228V33.0831C13.9317 33.2443 13.7945 33.378 13.6282 33.378H9.72908C9.56279 33.378 9.42822 33.2443 9.42822 33.0831V15.2965C9.42822 15.1328 9.56279 15 9.72908 15H20.9782ZM21.8508 22.0834C22.0162 22.0834 22.1508 22.2163 22.1508 22.3783V33.0831C22.1508 33.2443 22.0162 33.378 21.8508 33.378H17.7571C17.5891 33.378 17.4537 33.2443 17.4537 33.0831V22.3783C17.4537 22.2163 17.5891 22.0834 17.7571 22.0834H21.8508Z" fill="white"/>
</svg>
